<svg xmlns:xlink="http://www.w3.org/1999/xlink" width="512" xmlns="http://www.w3.org/2000/svg" height="512" id="screenshot-20515cfb-2298-80de-8002-66674154f90a" viewBox="0 0 512 512" style="-webkit-print-color-adjust: exact;" fill="none" version="1.1"><g id="shape-20515cfb-2298-80de-8002-66674154f90a"><defs><clipPath class="frame-clip-def frame-clip" id="frame-clip-20515cfb-2298-80de-8002-66674154f90a-rumext-id-1"><rect rx="0" ry="0" x="0" y="0" width="512" height="512" transform="matrix(1.000000, 0.000000, 0.000000, 1.000000, 0.000000, 0.000000)"/></clipPath></defs><g clip-path="url(#frame-clip-20515cfb-2298-80de-8002-66674154f90a-rumext-id-1)"><clipPath class="frame-clip-def frame-clip" id="frame-clip-20515cfb-2298-80de-8002-66674154f90a-rumext-id-1"><rect rx="0" ry="0" x="0" y="0" width="512" height="512" transform="matrix(1.000000, 0.000000, 0.000000, 1.000000, 0.000000, 0.000000)"/></clipPath><g class="fills" id="fills-20515cfb-2298-80de-8002-66674154f90a"><rect rx="0" ry="0" x="0" y="0" transform="matrix(1.000000, 0.000000, 0.000000, 1.000000, 0.000000, 0.000000)" width="512" height="512" class="frame-background"/></g><g class="frame-children"><g id="shape-994e45fb-05c9-8078-8002-6aef6044092a"><g class="fills" id="fills-994e45fb-05c9-8078-8002-6aef6044092a"><ellipse rx="256" ry="256" cx="256" cy="255.99999999999997" transform="matrix(1.000000, 0.000000, 0.000000, 1.000000, 0.000000, 0.000000)" style="fill: rgb(255, 255, 255); fill-opacity: 1;"/></g></g><g id="shape-42f3e1be-1a15-80f8-8002-670b0e7fd19f"><g class="fills" id="fills-42f3e1be-1a15-80f8-8002-670b0e7fd19f"><path rx="0" ry="0" d="M166.000,63.000L166.000,450.000"/></g><g id="strokes-42f3e1be-1a15-80f8-8002-670b0e7fd19f" class="strokes"><g class="stroke-shape"><path rx="0" ry="0" d="M166.000,63.000L166.000,450.000" style="fill: none; stroke-width: 5; stroke: rgb(0, 0, 0); stroke-opacity: 1;"/></g></g></g><g id="shape-42f3e1be-1a15-80f8-8002-670b2fb78f22"><g class="fills" id="fills-42f3e1be-1a15-80f8-8002-670b2fb78f22"><path rx="0" ry="0" d="M166.000,449.505L214.298,449.986C214.298,449.986,393.000,455.290,393.000,257.000"/></g><g id="strokes-42f3e1be-1a15-80f8-8002-670b2fb78f22" class="strokes"><g class="stroke-shape"><path rx="0" ry="0" d="M166.000,449.505L214.298,449.986C214.298,449.986,393.000,455.290,393.000,257.000" style="fill: none; stroke-width: 5; stroke: rgb(0, 0, 0); stroke-opacity: 1;"/></g></g></g><g id="shape-42f3e1be-1a15-80f8-8002-670b57cca348"><g class="fills" id="fills-42f3e1be-1a15-80f8-8002-670b57cca348"><path rx="0" ry="0" d="M345.000,254.000C345.000,254.000,340.496,120.000,214.000,120.000"/></g><g id="strokes-42f3e1be-1a15-80f8-8002-670b57cca348" class="strokes"><g class="stroke-shape"><path rx="0" ry="0" d="M345.000,254.000C345.000,254.000,340.496,120.000,214.000,120.000" style="fill: none; stroke-width: 5; stroke: rgb(0, 0, 0); stroke-opacity: 1;"/></g></g></g></g></g></g></svg>